<?xml version="1.0" encoding="UTF-8" standalone="no"?>
<!-- Created with Inkscape (http://www.inkscape.org/) -->

<svg
   version="1.1"
   id="svg59"
   width="800"
   height="800"
   viewBox="0 0 800 800"
   xmlns="http://www.w3.org/2000/svg"
   xmlns:svg="http://www.w3.org/2000/svg">
  <defs
     id="defs63">
    <clipPath
       clipPathUnits="userSpaceOnUse"
       id="clipPath75">
      <path
         d="M 0,600 H 600 V 0 H 0 Z"
         id="path73" />
    </clipPath>
  </defs>
  <g
     id="g67"
     transform="matrix(1.3333333,0,0,-1.3333333,0,800)">
    <g
       id="g69">
      <g
         id="g71"
         clip-path="url(#clipPath75)">
        <g
           id="g77"
           transform="translate(424.0685,357.6894)">
          <path
             d="m 0,0 c 26.729,-67.207 -6.085,-143.356 -73.292,-170.085 -67.207,-26.728 -143.356,6.086 -170.085,73.292 -26.728,67.207 6.086,143.357 73.292,170.085 C -102.878,100.021 -26.729,67.207 0,0"
             style="fill:#f9f9f9;fill-opacity:1;fill-rule:nonzero;stroke:none"
             id="path79" />
        </g>
        <g
           id="g81"
           transform="translate(395.1531,345.3471)">
          <path
             d="m 0,0 c 20.367,-51.212 -4.637,-109.238 -55.849,-129.605 -51.211,-20.367 -109.237,4.637 -129.605,55.849 -20.367,51.211 4.638,109.238 55.849,129.605 C -78.393,76.216 -20.367,51.212 0,0"
             style="fill:#000000;fill-opacity:1;fill-rule:nonzero;stroke:none"
             id="path83" />
        </g>
        <g
           id="g85"
           transform="translate(384.0491,342.1411)">
          <path
             d="m 0,0 c 17.923,-45.066 -4.081,-96.129 -49.147,-114.052 -45.066,-17.923 -96.129,4.08 -114.052,49.147 -17.923,45.066 4.081,96.129 49.147,114.052 C -68.986,67.07 -17.923,45.066 0,0"
             style="fill:#f9f9f9;fill-opacity:1;fill-rule:nonzero;stroke:none"
             id="path87" />
        </g>
        <g
           id="g89"
           transform="translate(217.6133,464.0119)">
          <path
             d="m 0,0 c 5.159,-15.022 9.764,-30.22 15.07,-45.185 -14.079,-9.841 -27.316,-21.3 -36.957,-35.647 -9.415,-12.955 -15.329,-27.982 -20.055,-43.175 -11.226,25.94 7.454,106.13 7.454,106.13 z"
             style="fill:#f9f9f9;fill-opacity:1;fill-rule:nonzero;stroke:none"
             id="path91" />
        </g>
        <g
           id="g93"
           transform="translate(347.2765,478.3274)">
          <path
             d="m 0,0 c -6.726,-14.389 -13.972,-28.52 -20.553,-42.97 -16.963,2.704 -34.445,3.658 -51.347,0.036 -15.772,-2.776 -30.465,-9.477 -44.42,-17.12 9.948,26.456 79.094,71.156 79.094,71.156 z"
             style="fill:#f9f9f9;fill-opacity:1;fill-rule:nonzero;stroke:none"
             id="path95" />
        </g>
        <g
           id="g97"
           transform="translate(453.1143,401.3061)">
          <path
             d="m 0,0 c -14.784,-5.808 -29.767,-11.07 -44.487,-17.022 -10.444,13.638 -22.468,26.364 -37.221,35.371 -13.352,8.842 -28.623,14.096 -44.007,18.157 25.427,12.344 106.354,-2.828 106.354,-2.828 z"
             style="fill:#f9f9f9;fill-opacity:1;fill-rule:nonzero;stroke:none"
             id="path99" />
        </g>
        <g
           id="g101"
           transform="translate(471.0042,253.5105)">
          <path
             d="m 0,0 c -14.062,7.386 -27.842,15.279 -41.971,22.522 3.486,16.82 5.25,34.239 2.415,51.291 -2.043,15.883 -8.055,30.871 -15.044,45.165 25.967,-11.163 67.415,-82.306 67.415,-82.306 z"
             style="fill:#f9f9f9;fill-opacity:1;fill-rule:nonzero;stroke:none"
             id="path103" />
        </g>
        <g
           id="g105"
           transform="translate(386.7023,153.6806)">
          <path
             d="m 0,0 c -5.159,15.022 -9.764,30.22 -15.07,45.185 14.079,9.841 27.316,21.3 36.957,35.647 9.415,12.955 15.329,27.982 20.055,43.175 11.226,-25.94 -7.454,-106.13 -7.454,-106.13 z"
             style="fill:#f9f9f9;fill-opacity:1;fill-rule:nonzero;stroke:none"
             id="path107" />
        </g>
        <g
           id="g109"
           transform="translate(255.6769,139.161)">
          <path
             d="M 0,0 C 6.726,14.389 13.972,28.52 20.553,42.97 37.516,40.266 54.998,39.312 71.9,42.934 87.672,45.71 102.365,52.411 116.32,60.054 106.372,33.598 37.226,-11.102 37.226,-11.102 Z"
             style="fill:#f9f9f9;fill-opacity:1;fill-rule:nonzero;stroke:none"
             id="path111" />
        </g>
        <g
           id="g113"
           transform="translate(150.2388,217.8345)">
          <path
             d="M 0,0 C 14.796,5.775 29.791,11.005 44.524,16.925 54.938,3.265 66.935,-9.488 81.668,-18.527 95,-27.398 110.26,-32.686 125.635,-36.78 100.181,-49.069 19.288,-33.72 19.288,-33.72 Z"
             style="fill:#f9f9f9;fill-opacity:1;fill-rule:nonzero;stroke:none"
             id="path115" />
        </g>
        <g
           id="g117"
           transform="translate(133.6536,362.4983)">
          <path
             d="m 0,0 c 14.141,-7.233 28.006,-14.976 42.213,-22.066 -3.304,-16.856 -4.878,-34.293 -1.859,-51.313 2.215,-15.86 8.389,-30.783 15.533,-45 -26.087,10.881 -68.304,81.57 -68.304,81.57 z"
             style="fill:#f9f9f9;fill-opacity:1;fill-rule:nonzero;stroke:none"
             id="path119" />
        </g>
        <g
           id="g121"
           transform="translate(573.1127,356.569)">
          <path
             d="M 0,0 -500.713,-199.133 -541.651,-96.2 -40.938,102.933 Z"
             style="fill:#6dab44;fill-opacity:1;fill-rule:nonzero;stroke:none"
             id="path123" />
        </g>
        <g
           id="g125"
           transform="translate(65.8267,253.6224)">
          <path
             d="M 0,0 7.553,2.997 C 8.417,3.34 9.396,2.917 9.738,2.053 l 22.754,-57.342 c 0.342,-0.864 1.321,-1.287 2.185,-0.944 l 14.447,5.733 c 0.864,0.342 1.842,-0.08 2.185,-0.944 l 2.757,-6.951 c 0.343,-0.863 -0.08,-1.842 -0.943,-2.184 l -25.129,-9.97 c -0.864,-0.343 -1.842,0.079 -2.185,0.943 L -0.944,-2.185 C -1.286,-1.321 -0.864,-0.343 0,0"
             style="fill:#ffffff;fill-opacity:1;fill-rule:nonzero;stroke:none"
             id="path127" />
        </g>
        <g
           id="g129"
           transform="translate(98.7433,266.683)">
          <path
             d="M 0,0 7.552,2.996 C 8.416,3.339 9.394,2.917 9.737,2.053 l 26.752,-67.421 c 0.343,-0.864 -0.08,-1.843 -0.943,-2.185 l -7.553,-2.997 c -0.864,-0.342 -1.842,0.08 -2.185,0.944 L -0.944,-2.185 C -1.286,-1.321 -0.864,-0.343 0,0"
             style="fill:#ffffff;fill-opacity:1;fill-rule:nonzero;stroke:none"
             id="path131" />
        </g>
        <g
           id="g133"
           transform="translate(155.5518,243.0983)">
          <path
             d="m 0,0 -9.683,40.734 c -0.193,0.813 0.24,1.645 1.017,1.953 l 11.939,4.738 c 0.864,0.343 1.842,-0.079 2.185,-0.943 L 32.21,-20.939 c 0.342,-0.864 -0.08,-1.842 -0.944,-2.185 l -6.97,-2.766 c -0.864,-0.343 -1.843,0.079 -2.185,0.943 L 11.213,2.518 C 10.443,4.458 7.53,3.54 8.011,1.509 l 7.006,-29.533 c 0.192,-0.813 -0.241,-1.644 -1.017,-1.952 l -7.412,-2.942 c -0.769,-0.305 -1.645,-0.006 -2.068,0.705 l -16.185,27.248 c -1.059,1.782 -3.776,0.447 -3.011,-1.48 l 11.347,-28.597 c 0.342,-0.864 -0.08,-1.842 -0.944,-2.185 l -6.192,-2.457 c -0.864,-0.342 -1.842,0.08 -2.185,0.944 l -26.752,67.421 c -0.343,0.864 0.079,1.842 0.943,2.185 l 11.954,4.743 c 0.77,0.306 1.648,0.005 2.069,-0.709 L -3.086,-1.245 C -2.105,-2.907 0.446,-1.878 0,0"
             style="fill:#ffffff;fill-opacity:1;fill-rule:nonzero;stroke:none"
             id="path135" />
        </g>
        <g
           id="g137"
           transform="translate(169.7198,294.8463)">
          <path
             d="M 0,0 7.552,2.996 C 8.416,3.339 9.394,2.917 9.737,2.053 l 26.752,-67.421 c 0.343,-0.864 -0.08,-1.843 -0.943,-2.185 l -7.553,-2.997 c -0.864,-0.343 -1.842,0.08 -2.185,0.944 L -0.944,-2.185 C -1.286,-1.321 -0.864,-0.343 0,0"
             style="fill:#ffffff;fill-opacity:1;fill-rule:nonzero;stroke:none"
             id="path139" />
        </g>
        <g
           id="g141"
           transform="translate(185.0608,300.9337)">
          <path
             d="m 0,0 29.885,11.858 c 0.864,0.343 1.842,-0.08 2.185,-0.944 l 2.758,-6.95 C 35.171,3.1 34.748,2.122 33.884,1.779 L 25.847,-1.41 C 24.983,-1.753 24.56,-2.731 24.903,-3.595 l 22.753,-57.343 c 0.342,-0.864 -0.08,-1.842 -0.944,-2.185 l -7.552,-2.996 c -0.864,-0.343 -1.842,0.08 -2.185,0.944 L 14.222,-7.833 c -0.343,0.864 -1.321,1.287 -2.185,0.944 l -8.038,-3.19 c -0.864,-0.342 -1.842,0.08 -2.185,0.944 l -2.758,6.95 C -1.286,-1.321 -0.864,-0.343 0,0"
             style="fill:#ffffff;fill-opacity:1;fill-rule:nonzero;stroke:none"
             id="path143" />
        </g>
        <g
           id="g145"
           transform="translate(249.7426,272.2501)">
          <path
             d="m 0,0 -30.706,39.857 c -0.683,0.886 -0.327,2.179 0.712,2.592 l 7.875,3.124 c 0.716,0.284 1.533,0.046 1.984,-0.578 L -3.876,22.517 c 1.023,-1.415 3.258,-0.528 3.032,1.203 L -4.42,51.23 c -0.1,0.764 0.332,1.497 1.048,1.781 l 6.903,2.74 C 4.57,56.163 5.716,55.466 5.826,54.353 L 10.802,4.286 c 0.015,-0.156 0.052,-0.309 0.11,-0.455 l 8.57,-21.598 c 0.343,-0.864 -0.08,-1.843 -0.944,-2.185 l -7.552,-2.997 c -0.864,-0.343 -1.842,0.08 -2.185,0.944 L 0.231,-0.406 C 0.173,-0.261 0.096,-0.124 0,0"
             style="fill:#ffffff;fill-opacity:1;fill-rule:nonzero;stroke:none"
             id="path147" />
        </g>
        <g
           id="g149"
           transform="translate(295.7531,274.8648)">
          <path
             d="m 0,0 c 0.609,0.162 1.237,0.374 1.884,0.631 0.648,0.256 1.263,0.501 1.845,0.731 1.684,0.669 2.949,1.675 3.801,3.025 0.85,1.348 0.729,3.4 -0.364,6.156 l -20.734,52.254 c -0.343,0.864 0.08,1.843 0.944,2.186 l 7.552,2.996 c 0.864,0.343 1.842,-0.08 2.185,-0.944 L 17.527,15.587 C 18.94,12.024 19.678,8.935 19.745,6.318 19.809,3.699 19.389,1.452 18.486,-0.423 17.581,-2.298 16.314,-3.871 14.683,-5.14 13.05,-6.411 11.23,-7.443 9.225,-8.239 8.253,-8.624 7.379,-8.971 6.603,-9.28 6.256,-9.417 5.89,-9.546 5.507,-9.667 4.67,-9.932 3.765,-9.492 3.442,-8.676 Z"
             style="fill:#ffffff;fill-opacity:1;fill-rule:nonzero;stroke:none"
             id="path151" />
        </g>
        <g
           id="g153"
           transform="translate(304.8872,328.8825)">
          <path
             d="m 0,0 c -2.266,5.71 -2.694,10.614 -1.286,14.713 1.408,4.096 4.733,7.185 9.976,9.266 5.245,2.081 9.783,2.112 13.618,0.096 3.836,-2.018 6.887,-5.882 9.153,-11.592 L 31.72,11.829 C 32.063,10.965 31.64,9.987 30.776,9.645 L 23.805,6.879 C 22.941,6.536 21.963,6.959 21.62,7.823 l -0.539,1.359 c -1.013,2.553 -2.195,4.163 -3.547,4.833 -1.352,0.668 -2.87,0.67 -4.553,0.003 C 11.297,13.35 10.193,12.308 9.67,10.893 9.143,9.479 9.388,7.496 10.4,4.943 c 0.961,-2.418 2.325,-4.347 4.095,-5.783 1.767,-1.438 3.755,-2.669 5.962,-3.7 2.208,-1.031 4.527,-2.015 6.96,-2.953 2.433,-0.941 4.814,-2.077 7.142,-3.408 2.325,-1.333 4.501,-3.037 6.522,-5.112 2.021,-2.074 3.701,-4.792 5.033,-8.152 2.266,-5.711 2.661,-10.628 1.189,-14.75 -1.473,-4.125 -4.831,-7.225 -10.074,-9.305 -5.245,-2.081 -9.815,-2.128 -13.715,-0.134 -3.9,1.99 -6.983,5.841 -9.249,11.552 l -1.099,2.771 c -0.342,0.864 0.08,1.842 0.944,2.184 l 6.97,2.766 c 0.864,0.343 1.843,-0.079 2.186,-0.943 l 1.378,-3.475 c 1.013,-2.555 2.219,-4.135 3.624,-4.744 1.403,-0.611 2.945,-0.582 4.63,0.087 1.682,0.667 2.824,1.703 3.429,3.11 0.604,1.406 0.4,3.384 -0.614,5.94 -0.959,2.418 -2.325,4.344 -4.093,5.782 -1.769,1.437 -3.757,2.67 -5.963,3.699 -2.207,1.03 -4.526,2.014 -6.961,2.956 -2.434,0.938 -4.813,2.074 -7.14,3.406 -2.326,1.332 -4.502,3.035 -6.523,5.111 C 3.01,-6.078 1.333,-3.361 0,0"
             style="fill:#ffffff;fill-opacity:1;fill-rule:nonzero;stroke:none"
             id="path155" />
        </g>
        <g
           id="g157"
           transform="translate(375.768,330.4798)">
          <path
             d="m 0,0 -9.683,40.735 c -0.193,0.813 0.24,1.645 1.017,1.953 l 11.939,4.737 c 0.864,0.343 1.842,-0.079 2.185,-0.943 L 32.21,-20.939 c 0.343,-0.864 -0.08,-1.843 -0.944,-2.185 l -6.97,-2.766 c -0.864,-0.343 -1.842,0.079 -2.185,0.943 L 11.213,2.518 C 10.444,4.458 7.53,3.54 8.011,1.509 l 7.006,-29.532 c 0.192,-0.814 -0.241,-1.645 -1.017,-1.953 l -7.413,-2.941 c -0.768,-0.305 -1.645,-0.006 -2.067,0.705 l -16.185,27.247 c -1.059,1.783 -3.776,0.447 -3.011,-1.48 l 11.347,-28.597 c 0.342,-0.864 -0.08,-1.842 -0.944,-2.185 l -6.192,-2.457 c -0.864,-0.342 -1.842,0.08 -2.185,0.944 l -26.752,67.421 c -0.343,0.864 0.079,1.842 0.943,2.185 l 11.954,4.743 c 0.77,0.305 1.648,0.005 2.07,-0.709 L -3.086,-1.245 C -2.105,-2.907 0.446,-1.878 0,0"
             style="fill:#ffffff;fill-opacity:1;fill-rule:nonzero;stroke:none"
             id="path159" />
        </g>
        <g
           id="g161"
           transform="translate(412.4158,356.7349)">
          <path
             d="m 0,0 11.534,4.576 c 0.864,0.343 1.842,-0.08 2.185,-0.944 l 2.756,-6.949 c 0.343,-0.864 -0.079,-1.842 -0.943,-2.185 L 3.998,-10.078 c -0.864,-0.343 -1.287,-1.321 -0.944,-2.185 l 6.958,-17.532 c 0.343,-0.864 1.321,-1.286 2.185,-0.943 l 15.32,6.078 c 0.864,0.342 1.842,-0.08 2.185,-0.944 l 2.757,-6.951 c 0.343,-0.863 -0.08,-1.842 -0.943,-2.184 L 5.515,-45.056 c -0.864,-0.343 -1.842,0.079 -2.185,0.943 l -26.752,67.421 c -0.343,0.864 0.08,1.843 0.943,2.185 L 3.522,35.81 c 0.864,0.343 1.842,-0.079 2.185,-0.943 l 2.758,-6.95 C 8.808,27.053 8.385,26.074 7.521,25.732 L -7.799,19.654 C -8.663,19.311 -9.085,18.333 -8.742,17.469 L -2.185,0.944 C -1.842,0.08 -0.864,-0.343 0,0"
             style="fill:#ffffff;fill-opacity:1;fill-rule:nonzero;stroke:none"
             id="path163" />
        </g>
        <g
           id="g165"
           transform="translate(479.0805,371.4742)">
          <path
             d="m 0,0 -9.683,40.735 c -0.193,0.813 0.24,1.645 1.017,1.953 l 11.939,4.737 c 0.864,0.343 1.842,-0.079 2.185,-0.943 L 32.21,-20.939 c 0.343,-0.864 -0.08,-1.843 -0.944,-2.185 l -6.97,-2.766 c -0.864,-0.343 -1.842,0.079 -2.185,0.943 L 11.213,2.518 C 10.444,4.458 7.53,3.54 8.011,1.509 l 7.006,-29.533 c 0.192,-0.813 -0.241,-1.644 -1.017,-1.952 l -7.413,-2.941 c -0.768,-0.305 -1.645,-0.006 -2.067,0.705 l -16.185,27.247 c -1.059,1.783 -3.776,0.447 -3.011,-1.48 l 11.347,-28.597 c 0.342,-0.864 -0.08,-1.842 -0.944,-2.185 l -6.192,-2.457 c -0.864,-0.342 -1.842,0.08 -2.185,0.944 l -26.752,67.421 c -0.343,0.864 0.079,1.842 0.943,2.185 l 11.954,4.743 c 0.77,0.305 1.648,0.005 2.07,-0.709 L -3.086,-1.245 C -2.105,-2.907 0.446,-1.878 0,0"
             style="fill:#ffffff;fill-opacity:1;fill-rule:nonzero;stroke:none"
             id="path167" />
        </g>
        <g
           id="g169"
           transform="translate(520.2564,379.5896)">
          <path
             d="m 0,0 -30.706,39.857 c -0.683,0.886 -0.327,2.179 0.712,2.592 l 7.875,3.124 c 0.716,0.284 1.533,0.046 1.984,-0.578 L -3.876,22.517 c 1.023,-1.415 3.258,-0.528 3.032,1.203 L -4.42,51.23 c -0.1,0.764 0.332,1.497 1.048,1.781 l 6.903,2.74 C 4.57,56.163 5.716,55.466 5.826,54.353 L 10.801,4.287 c 0.016,-0.156 0.053,-0.309 0.11,-0.454 l 8.571,-21.599 c 0.342,-0.864 -0.08,-1.842 -0.944,-2.185 l -7.552,-2.997 c -0.864,-0.343 -1.842,0.079 -2.185,0.943 L 0.231,-0.406 C 0.173,-0.261 0.096,-0.124 0,0"
             style="fill:#ffffff;fill-opacity:1;fill-rule:nonzero;stroke:none"
             id="path171" />
        </g>
      </g>
    </g>
  </g>
</svg>
